<svg version="1.1" xmlns="http://www.w3.org/2000/svg" xmlns:xlink="http://www.w3.org/1999/xlink" width="132" height="132"><defs><style xmlns="http://www.w3.org/1999/xhtml" type="text/css">@font-face {
  font-family: 'Inter';
  font-style: normal;
  font-weight: 100;
  src: url('https://frame0.app/fonts/Inter-Thin.ttf') format('truetype');
}
@font-face {
  font-family: 'Inter';
  font-style: italic;
  font-weight: 100;
  src: url('https://frame0.app/fonts/Inter-ThinItalic.ttf') format('truetype');
}
@font-face {
  font-family: 'Inter';
  font-style: normal;
  font-weight: 200;
  src: url('https://frame0.app/fonts/Inter-ExtraLight.ttf') format('truetype');
}
@font-face {
  font-family: 'Inter';
  font-style: italic;
  font-weight: 200;
  src: url('https://frame0.app/fonts/Inter-ExtraLightItalic.ttf') format('truetype');
}
@font-face {
  font-family: 'Inter';
  font-style: normal;
  font-weight: 300;
  src: url('https://frame0.app/fonts/Inter-Light.ttf') format('truetype');
}
@font-face {
  font-family: 'Inter';
  font-style: italic;
  font-weight: 300;
  src: url('https://frame0.app/fonts/Inter-LightItalic.ttf') format('truetype');
}
@font-face {
  font-family: 'Inter';
  font-style: normal;
  font-weight: 400;
  src: url('https://frame0.app/fonts/Inter-Regular.ttf') format('truetype');
}
@font-face {
  font-family: 'Inter';
  font-style: italic;
  font-weight: 400;
  src: url('https://frame0.app/fonts/Inter-Italic.ttf') format('truetype');
}
@font-face {
  font-family: 'Inter';
  font-style: normal;
  font-weight: 500;
  src: url('https://frame0.app/fonts/Inter-Medium.ttf') format('truetype');
}
@font-face {
  font-family: 'Inter';
  font-style: italic;
  font-weight: 500;
  src: url('https://frame0.app/fonts/Inter-MediumItalic.ttf') format('truetype');
}
@font-face {
  font-family: 'Inter';
  font-style: normal;
  font-weight: 600;
  src: url('https://frame0.app/fonts/Inter-SemiBold.ttf') format('truetype');
}
@font-face {
  font-family: 'Inter';
  font-style: italic;
  font-weight: 600;
  src: url('https://frame0.app/fonts/Inter-SemiBoldItalic.ttf') format('truetype');
}
@font-face {
  font-family: 'Inter';
  font-style: normal;
  font-weight: 700;
  src: url('https://frame0.app/fonts/Inter-Bold.ttf') format('truetype');
}
@font-face {
  font-family: 'Inter';
  font-style: italic;
  font-weight: 700;
  src: url('https://frame0.app/fonts/Inter-BoldItalic.ttf') format('truetype');
}
@font-face {
  font-family: 'Inter';
  font-style: normal;
  font-weight: 800;
  src: url('https://frame0.app/fonts/Inter-ExtraBold.ttf') format('truetype');
}
@font-face {
  font-family: 'Inter';
  font-style: italic;
  font-weight: 800;
  src: url('https://frame0.app/fonts/Inter-ExtraBoldItalic.ttf') format('truetype');
}
@font-face {
  font-family: 'Source Serif Pro';
  font-style: normal;
  font-weight: 400;
  src: url('https://frame0.app/fonts/SourceSerifPro-Regular.ttf') format('truetype');
}
@font-face {
  font-family: 'Source Serif Pro';
  font-style: italic;
  font-weight: 400;
  src: url('https://frame0.app/fonts/SourceSerifPro-Italic.ttf') format('truetype');
}
@font-face {
  font-family: 'Source Serif Pro';
  font-style: normal;
  font-weight: 700;
  src: url('https://frame0.app/fonts/SourceSerifPro-Bold.ttf') format('truetype');
}
@font-face {
  font-family: 'Source Serif Pro';
  font-style: italic;
  font-weight: 700;
  src: url('https://frame0.app/fonts/SourceSerifPro-BoldItalic.ttf') format('truetype');
}
@font-face {
  font-family: 'IBM Plex Mono';
  font-style: normal;
  font-weight: 400;
  src: url('https://frame0.app/fonts/IBMPlexMono-Regular.ttf') format('truetype');
}
@font-face {
  font-family: 'IBM Plex Mono';
  font-style: italic;
  font-weight: 400;
  src: url('https://frame0.app/fonts/IBMPlexMono-Italic.ttf') format('truetype');
}
@font-face {
  font-family: 'IBM Plex Mono';
  font-style: normal;
  font-weight: 700;
  src: url('https://frame0.app/fonts/IBMPlexMono-Bold.ttf') format('truetype');
}
@font-face {
  font-family: 'IBM Plex Mono';
  font-style: italic;
  font-weight: 700;
  src: url('https://frame0.app/fonts/IBMPlexMono-BoldItalic.ttf') format('truetype');
}
@font-face {
  font-family: 'Loranthus';
  font-style: normal;
  font-weight: 400;
  src: url('https://frame0.app/fonts/Loranthus-Regular.ttf') format('truetype');
}
@font-face {
  font-family: 'Loranthus';
  font-style: normal;
  font-weight: 700;
  src: url('https://frame0.app/fonts/Loranthus-Bold.ttf') format('truetype');
}
@font-face {
  font-family: 'Loranthus';
  font-style: italic;
  font-weight: 400;
  src: url('https://frame0.app/fonts/Loranthus-Italic.ttf') format('truetype');
}
@font-face {
  font-family: 'Loranthus';
  font-style: italic;
  font-weight: 700;
  src: url('https://frame0.app/fonts/Loranthus-BoldItalic.ttf') format('truetype');
}
@font-face {
  font-family: 'Redacted Script';
  font-style: normal;
  font-weight: 400;
  src: url('https://frame0.app/fonts/RedactedScript-Regular.ttf') format('truetype');
}
@font-face {
  font-family: 'Redacted Script';
  font-style: normal;
  font-weight: 700;
  src: url('https://frame0.app/fonts/RedactedScript-Bold.ttf') format('truetype');
}
@font-face {
  font-family: 'Jojoba';
  font-style: normal;
  font-weight: 400;
  src: url('https://frame0.app/fonts/Jojoba.ttf') format('truetype');
}</style></defs><g><g><g><g><path fill="none" stroke="#ffffff" paint-order="fill stroke markers" d=" M 2.5 2.5 C 47.458552196249364 2.423173328526318 91.06041593030095 1.1874963246658443 129.5 2.5 M 2.5 2.5 C 51.20969278477133 1.060388918183744 100.38605099767447 2.5446309998258947 129.5 2.5 M 129.5 2.5 C 127.7587012425065 4.267677031457424 129.0379854813218 0.5971688851714134 129.5 2.5 M 129.5 2.5 C 130.00514452569186 1.7313996721059084 127.39357222430408 1.5248393822461368 129.5 2.5 M 129.5 2.5 C 129.18216998327523 41.20748969875276 130.20507461775094 74.95323922410607 129.5 129.5 M 129.5 2.5 C 130.9625235628709 40.67003899328411 131.24631927724926 80.14940715730191 129.5 129.5 M 129.5 129.5 C 130.13944450765848 128.1258291825652 128.9004716053605 129.66486235707998 129.5 129.5 M 129.5 129.5 C 127.28146439902484 131.16800532825292 127.38520009629428 129.19384822137653 129.5 129.5 M 129.5 129.5 C 81.70846988596021 130.65203183125703 36.70694596990941 128.057819060795 2.5 129.5 M 129.5 129.5 C 96.28899041898548 127.35800622288137 63.240795853734 127.6183179456368 2.5 129.5 M 2.5 129.5 C 2.3972400799393654 129.1758987531066 1.8087112084031105 128.29874082654715 2.5 129.5 M 2.5 129.5 C 0.22120399586856365 129.53808457143606 0.8803477894514802 128.86814461238683 2.5 129.5 M 2.5 129.5 C 3.983670622818172 105.90715259052813 4.738890320770443 79.66979094073176 2.5 2.5 M 2.5 129.5 C 3.4014899340644478 84.89983413554728 2.7633419838920235 40.318155623972416 2.5 2.5 M 2.5 2.5 C 3.7237383499741554 1.5738916024565697 2.3215421810746193 4.162622652947903 2.5 2.5 M 2.5 2.5 C 3.0267925154417754 2.501512889936566 1.928710127994418 2.76658841855824 2.5 2.5 M 2.5 2.5 C 2.5 2.5 2.5 2.5 2.5 2.5 M 2.5 2.5 C 2.5 2.5 2.5 2.5 2.5 2.5" stroke-linecap="round" stroke-linejoin="round" stroke-miterlimit="10" stroke-width="2"/></g></g><g><g><path fill="none" stroke="#ffffff" paint-order="fill stroke markers" d=" M 22.764322916666664 40.8671875 C 27.673983235967654 41.577488300533346 32.54960304840158 40.51304087175056 40.09765625 40.8671875 M 22.764322916666664 40.8671875 C 29.67508062698568 40.86900649733841 36.178851677135874 40.799925537581245 40.09765625 40.8671875" stroke-linecap="round" stroke-linejoin="round" stroke-miterlimit="10" stroke-width="2"/></g><g><path fill="none" stroke="#ffffff" paint-order="fill stroke markers" d=" M 22.764322916666664 58.20052083333333 C 27.673983235967654 58.910821633866675 32.54960304840158 57.84637420508389 40.09765625 58.20052083333333 M 22.764322916666664 58.20052083333333 C 29.67508062698568 58.20233983067174 36.178851677135874 58.133258870914574 40.09765625 58.20052083333333" stroke-linecap="round" stroke-linejoin="round" stroke-miterlimit="10" stroke-width="2"/></g><g><path fill="none" stroke="#ffffff" paint-order="fill stroke markers" d=" M 22.764322916666664 75.53385416666666 C 27.673983235967654 76.2441549672 32.54960304840158 75.17970753841723 40.09765625 75.53385416666666 M 22.764322916666664 75.53385416666666 C 29.67508062698568 75.53567316400508 36.178851677135874 75.4665922042479 40.09765625 75.53385416666666" stroke-linecap="round" stroke-linejoin="round" stroke-miterlimit="10" stroke-width="2"/></g><g><path fill="none" stroke="#ffffff" paint-order="fill stroke markers" d=" M 22.764322916666664 92.8671875 C 27.673983235967654 93.57748830053335 32.54960304840158 92.51304087175058 40.09765625 92.8671875 M 22.764322916666664 92.8671875 C 29.67508062698568 92.86900649733842 36.178851677135874 92.79992553758125 40.09765625 92.8671875" stroke-linecap="round" stroke-linejoin="round" stroke-miterlimit="10" stroke-width="2"/></g><g><path fill="none" stroke="#ffffff" paint-order="fill stroke markers" d=" M 40.09765625 23.533854166666664 C 55.094831813313064 24.48655431915695 70.05272986870258 23.258345747484512 92.09765624999999 23.533854166666664 M 40.09765625 23.533854166666664 C 60.13405876616015 23.56886429863671 79.70086128981782 23.4891554989169 92.09765624999999 23.533854166666664 M 92.09765624999999 23.533854166666664 C 96.43765808391016 24.173666799130537 101.15990458025286 26.53653597089207 100.76432291666666 32.20052083333333 M 92.09765624999999 23.533854166666664 C 96.16585379751031 24.408957991671436 101.10105972198458 27.93638250294818 100.76432291666666 32.20052083333333 M 100.76432291666666 32.20052083333333 C 101.50850420289983 56.9034785642599 101.62500461035718 83.9210855781411 100.76432291666666 101.53385416666664 M 100.76432291666666 32.20052083333333 C 100.62463524221752 53.52029391381268 100.32140494167183 76.07227266135935 100.76432291666666 101.53385416666664 M 100.76432291666666 101.53385416666664 C 101.19371489776918 105.50064179857513 96.10119189071101 109.28072154925513 92.09765624999999 110.20052083333331 M 100.76432291666666 101.53385416666664 C 101.18839491812201 106.69990424981593 97.89897573502365 110.40467036532547 92.09765624999999 110.20052083333331 M 92.09765624999999 110.20052083333331 C 80.02009264547377 110.44620832818869 70.36097830962389 109.43899852055434 40.09765625 110.20052083333331 M 92.09765624999999 110.20052083333331 C 79.49165888661517 110.50336801537621 66.75816438617184 109.56885136195767 40.09765625 110.20052083333331 M 40.09765625 110.20052083333331 C 34.73328350921528 110.15266246007133 31.259453853902716 106.11912665327331 31.430989583333332 101.53385416666664 M 40.09765625 110.20052083333331 C 35.425600704591666 110.696000473372 31.028693890649205 106.00494044294832 31.430989583333332 101.53385416666664 M 31.430989583333332 101.53385416666664 C 32.10619611142824 80.66089182340849 32.39473364351938 60.35692912731318 31.430989583333332 32.20052083333333 M 31.430989583333332 101.53385416666664 C 30.80806970531121 84.04245791587356 31.25712345475331 66.74995897514745 31.430989583333332 32.20052083333333 M 31.430989583333332 32.20052083333333 C 31.552873393831153 26.86746954175389 35.18100463291066 23.43235769278059 40.09765625 23.533854166666664 M 31.430989583333332 32.20052083333333 C 32.19425498552931 27.298282403384583 35.948648408096226 22.665029675435893 40.09765625 23.533854166666664 M 40.09765625 23.533854166666664 C 40.09765625 23.533854166666664 40.09765625 23.533854166666664 40.09765625 23.533854166666664 M 40.09765625 23.533854166666664 C 40.09765625 23.533854166666664 40.09765625 23.533854166666664 40.09765625 23.533854166666664" stroke-linecap="round" stroke-linejoin="round" stroke-miterlimit="10" stroke-width="2"/></g><g><path fill="none" stroke="#ffffff" paint-order="fill stroke markers" d=" M 55.264322916666664 49.533854166666664 C 61.41536678482468 50.36036546685888 67.52713314505914 49.13215689518644 76.93098958333333 49.533854166666664 M 55.264322916666664 49.533854166666664 C 63.86652679337809 49.537667139378996 71.99913067758703 49.457958339659186 76.93098958333333 49.533854166666664" stroke-linecap="round" stroke-linejoin="round" stroke-miterlimit="10" stroke-width="2"/></g><g><path fill="none" stroke="#ffffff" paint-order="fill stroke markers" d=" M 55.264322916666664 66.8671875 C 63.310966433786476 67.7207392685418 71.31833244298274 66.49253069686937 83.43098958333333 66.8671875 M 55.264322916666664 66.8671875 C 66.31671221611711 66.87768557826756 76.89950152306507 66.79797677854775 83.43098958333333 66.8671875" stroke-linecap="round" stroke-linejoin="round" stroke-miterlimit="10" stroke-width="2"/></g><g><path fill="none" stroke="#ffffff" paint-order="fill stroke markers" d=" M 55.264322916666664 84.20052083333333 C 60.78769077588027 84.99960923393334 66.27276306486843 83.80210587655272 74.76432291666666 84.20052083333333 M 55.264322916666664 84.20052083333333 C 63.03892534077555 84.20256720533905 70.35566777219451 84.12485112561222 74.76432291666666 84.20052083333333" stroke-linecap="round" stroke-linejoin="round" stroke-miterlimit="10" stroke-width="2"/></g></g></g></g></svg>