<svg version="1.1" xmlns="http://www.w3.org/2000/svg" xmlns:xlink="http://www.w3.org/1999/xlink" width="129" height="129"><defs><style xmlns="http://www.w3.org/1999/xhtml" type="text/css">@font-face {
  font-family: 'Inter';
  font-style: normal;
  font-weight: 100;
  src: url('https://frame0.app/fonts/Inter-Thin.ttf') format('truetype');
}
@font-face {
  font-family: 'Inter';
  font-style: italic;
  font-weight: 100;
  src: url('https://frame0.app/fonts/Inter-ThinItalic.ttf') format('truetype');
}
@font-face {
  font-family: 'Inter';
  font-style: normal;
  font-weight: 200;
  src: url('https://frame0.app/fonts/Inter-ExtraLight.ttf') format('truetype');
}
@font-face {
  font-family: 'Inter';
  font-style: italic;
  font-weight: 200;
  src: url('https://frame0.app/fonts/Inter-ExtraLightItalic.ttf') format('truetype');
}
@font-face {
  font-family: 'Inter';
  font-style: normal;
  font-weight: 300;
  src: url('https://frame0.app/fonts/Inter-Light.ttf') format('truetype');
}
@font-face {
  font-family: 'Inter';
  font-style: italic;
  font-weight: 300;
  src: url('https://frame0.app/fonts/Inter-LightItalic.ttf') format('truetype');
}
@font-face {
  font-family: 'Inter';
  font-style: normal;
  font-weight: 400;
  src: url('https://frame0.app/fonts/Inter-Regular.ttf') format('truetype');
}
@font-face {
  font-family: 'Inter';
  font-style: italic;
  font-weight: 400;
  src: url('https://frame0.app/fonts/Inter-Italic.ttf') format('truetype');
}
@font-face {
  font-family: 'Inter';
  font-style: normal;
  font-weight: 500;
  src: url('https://frame0.app/fonts/Inter-Medium.ttf') format('truetype');
}
@font-face {
  font-family: 'Inter';
  font-style: italic;
  font-weight: 500;
  src: url('https://frame0.app/fonts/Inter-MediumItalic.ttf') format('truetype');
}
@font-face {
  font-family: 'Inter';
  font-style: normal;
  font-weight: 600;
  src: url('https://frame0.app/fonts/Inter-SemiBold.ttf') format('truetype');
}
@font-face {
  font-family: 'Inter';
  font-style: italic;
  font-weight: 600;
  src: url('https://frame0.app/fonts/Inter-SemiBoldItalic.ttf') format('truetype');
}
@font-face {
  font-family: 'Inter';
  font-style: normal;
  font-weight: 700;
  src: url('https://frame0.app/fonts/Inter-Bold.ttf') format('truetype');
}
@font-face {
  font-family: 'Inter';
  font-style: italic;
  font-weight: 700;
  src: url('https://frame0.app/fonts/Inter-BoldItalic.ttf') format('truetype');
}
@font-face {
  font-family: 'Inter';
  font-style: normal;
  font-weight: 800;
  src: url('https://frame0.app/fonts/Inter-ExtraBold.ttf') format('truetype');
}
@font-face {
  font-family: 'Inter';
  font-style: italic;
  font-weight: 800;
  src: url('https://frame0.app/fonts/Inter-ExtraBoldItalic.ttf') format('truetype');
}
@font-face {
  font-family: 'Source Serif Pro';
  font-style: normal;
  font-weight: 400;
  src: url('https://frame0.app/fonts/SourceSerifPro-Regular.ttf') format('truetype');
}
@font-face {
  font-family: 'Source Serif Pro';
  font-style: italic;
  font-weight: 400;
  src: url('https://frame0.app/fonts/SourceSerifPro-Italic.ttf') format('truetype');
}
@font-face {
  font-family: 'Source Serif Pro';
  font-style: normal;
  font-weight: 700;
  src: url('https://frame0.app/fonts/SourceSerifPro-Bold.ttf') format('truetype');
}
@font-face {
  font-family: 'Source Serif Pro';
  font-style: italic;
  font-weight: 700;
  src: url('https://frame0.app/fonts/SourceSerifPro-BoldItalic.ttf') format('truetype');
}
@font-face {
  font-family: 'IBM Plex Mono';
  font-style: normal;
  font-weight: 400;
  src: url('https://frame0.app/fonts/IBMPlexMono-Regular.ttf') format('truetype');
}
@font-face {
  font-family: 'IBM Plex Mono';
  font-style: italic;
  font-weight: 400;
  src: url('https://frame0.app/fonts/IBMPlexMono-Italic.ttf') format('truetype');
}
@font-face {
  font-family: 'IBM Plex Mono';
  font-style: normal;
  font-weight: 700;
  src: url('https://frame0.app/fonts/IBMPlexMono-Bold.ttf') format('truetype');
}
@font-face {
  font-family: 'IBM Plex Mono';
  font-style: italic;
  font-weight: 700;
  src: url('https://frame0.app/fonts/IBMPlexMono-BoldItalic.ttf') format('truetype');
}
@font-face {
  font-family: 'Loranthus';
  font-style: normal;
  font-weight: 400;
  src: url('https://frame0.app/fonts/Loranthus-Regular.ttf') format('truetype');
}
@font-face {
  font-family: 'Loranthus';
  font-style: normal;
  font-weight: 700;
  src: url('https://frame0.app/fonts/Loranthus-Bold.ttf') format('truetype');
}
@font-face {
  font-family: 'Loranthus';
  font-style: italic;
  font-weight: 400;
  src: url('https://frame0.app/fonts/Loranthus-Italic.ttf') format('truetype');
}
@font-face {
  font-family: 'Loranthus';
  font-style: italic;
  font-weight: 700;
  src: url('https://frame0.app/fonts/Loranthus-BoldItalic.ttf') format('truetype');
}
@font-face {
  font-family: 'Redacted Script';
  font-style: normal;
  font-weight: 400;
  src: url('https://frame0.app/fonts/RedactedScript-Regular.ttf') format('truetype');
}
@font-face {
  font-family: 'Redacted Script';
  font-style: normal;
  font-weight: 700;
  src: url('https://frame0.app/fonts/RedactedScript-Bold.ttf') format('truetype');
}
@font-face {
  font-family: 'Jojoba';
  font-style: normal;
  font-weight: 400;
  src: url('https://frame0.app/fonts/Jojoba.ttf') format('truetype');
}</style></defs><g><g><g><g><g><path fill="none" stroke="#ffffff" paint-order="fill stroke markers" d=" M 2 2 L 129 2 L 129 2 L 129 129 L 129 129 L 2 129 L 2 129 L 2 2 L 2 2 Z" stroke-linecap="round" stroke-linejoin="round" stroke-miterlimit="10" stroke-width="2"/></g><g><g><path fill="none" stroke="#ffffff" paint-order="fill stroke markers" d=" M 22.264322916666664 40.3671875 C 27.173983235967654 41.077488300533346 32.04960304840158 40.01304087175056 39.59765625 40.3671875 M 22.264322916666664 40.3671875 C 29.17508062698568 40.36900649733841 35.678851677135874 40.299925537581245 39.59765625 40.3671875" stroke-linecap="round" stroke-linejoin="round" stroke-miterlimit="10" stroke-width="2"/></g><g><path fill="none" stroke="#ffffff" paint-order="fill stroke markers" d=" M 22.264322916666664 57.70052083333333 C 27.173983235967654 58.410821633866675 32.04960304840158 57.34637420508389 39.59765625 57.70052083333333 M 22.264322916666664 57.70052083333333 C 29.17508062698568 57.70233983067174 35.678851677135874 57.633258870914574 39.59765625 57.70052083333333" stroke-linecap="round" stroke-linejoin="round" stroke-miterlimit="10" stroke-width="2"/></g><g><path fill="none" stroke="#ffffff" paint-order="fill stroke markers" d=" M 22.264322916666664 75.03385416666666 C 27.173983235967654 75.7441549672 32.04960304840158 74.67970753841723 39.59765625 75.03385416666666 M 22.264322916666664 75.03385416666666 C 29.17508062698568 75.03567316400508 35.678851677135874 74.9665922042479 39.59765625 75.03385416666666" stroke-linecap="round" stroke-linejoin="round" stroke-miterlimit="10" stroke-width="2"/></g><g><path fill="none" stroke="#ffffff" paint-order="fill stroke markers" d=" M 22.264322916666664 92.3671875 C 27.173983235967654 93.07748830053335 32.04960304840158 92.01304087175058 39.59765625 92.3671875 M 22.264322916666664 92.3671875 C 29.17508062698568 92.36900649733842 35.678851677135874 92.29992553758125 39.59765625 92.3671875" stroke-linecap="round" stroke-linejoin="round" stroke-miterlimit="10" stroke-width="2"/></g><g><path fill="none" stroke="#ffffff" paint-order="fill stroke markers" d=" M 39.59765625 23.033854166666664 C 54.594831813313064 23.98655431915695 69.55272986870258 22.758345747484512 91.59765624999999 23.033854166666664 M 39.59765625 23.033854166666664 C 59.63405876616015 23.06886429863671 79.20086128981782 22.9891554989169 91.59765624999999 23.033854166666664 M 91.59765624999999 23.033854166666664 C 95.93765808391016 23.673666799130537 100.65990458025286 26.03653597089207 100.26432291666666 31.70052083333333 M 91.59765624999999 23.033854166666664 C 95.66585379751031 23.908957991671436 100.60105972198458 27.43638250294818 100.26432291666666 31.70052083333333 M 100.26432291666666 31.70052083333333 C 101.00850420289983 56.4034785642599 101.12500461035718 83.4210855781411 100.26432291666666 101.03385416666664 M 100.26432291666666 31.70052083333333 C 100.12463524221752 53.02029391381268 99.82140494167183 75.57227266135935 100.26432291666666 101.03385416666664 M 100.26432291666666 101.03385416666664 C 100.69371489776918 105.00064179857513 95.60119189071101 108.78072154925513 91.59765624999999 109.70052083333331 M 100.26432291666666 101.03385416666664 C 100.68839491812201 106.19990424981593 97.39897573502365 109.90467036532547 91.59765624999999 109.70052083333331 M 91.59765624999999 109.70052083333331 C 79.52009264547377 109.94620832818869 69.86097830962389 108.93899852055434 39.59765625 109.70052083333331 M 91.59765624999999 109.70052083333331 C 78.99165888661517 110.00336801537621 66.25816438617184 109.06885136195767 39.59765625 109.70052083333331 M 39.59765625 109.70052083333331 C 34.23328350921528 109.65266246007133 30.759453853902716 105.61912665327331 30.930989583333332 101.03385416666664 M 39.59765625 109.70052083333331 C 34.925600704591666 110.196000473372 30.528693890649205 105.50494044294832 30.930989583333332 101.03385416666664 M 30.930989583333332 101.03385416666664 C 31.60619611142824 80.16089182340849 31.89473364351938 59.85692912731318 30.930989583333332 31.70052083333333 M 30.930989583333332 101.03385416666664 C 30.30806970531121 83.54245791587356 30.75712345475331 66.24995897514745 30.930989583333332 31.70052083333333 M 30.930989583333332 31.70052083333333 C 31.052873393831153 26.36746954175389 34.68100463291066 22.93235769278059 39.59765625 23.033854166666664 M 30.930989583333332 31.70052083333333 C 31.69425498552931 26.798282403384583 35.448648408096226 22.165029675435893 39.59765625 23.033854166666664 M 39.59765625 23.033854166666664 C 39.59765625 23.033854166666664 39.59765625 23.033854166666664 39.59765625 23.033854166666664 M 39.59765625 23.033854166666664 C 39.59765625 23.033854166666664 39.59765625 23.033854166666664 39.59765625 23.033854166666664" stroke-linecap="round" stroke-linejoin="round" stroke-miterlimit="10" stroke-width="2"/></g><g><path fill="none" stroke="#ffffff" paint-order="fill stroke markers" d=" M 54.764322916666664 49.033854166666664 C 60.91536678482468 49.86036546685888 67.02713314505914 48.63215689518644 76.43098958333333 49.033854166666664 M 54.764322916666664 49.033854166666664 C 63.36652679337809 49.037667139378996 71.49913067758703 48.957958339659186 76.43098958333333 49.033854166666664" stroke-linecap="round" stroke-linejoin="round" stroke-miterlimit="10" stroke-width="2"/></g><g><path fill="none" stroke="#ffffff" paint-order="fill stroke markers" d=" M 54.764322916666664 66.3671875 C 62.810966433786476 67.2207392685418 70.81833244298274 65.99253069686937 82.93098958333333 66.3671875 M 54.764322916666664 66.3671875 C 65.81671221611711 66.37768557826756 76.39950152306507 66.29797677854775 82.93098958333333 66.3671875" stroke-linecap="round" stroke-linejoin="round" stroke-miterlimit="10" stroke-width="2"/></g><g><path fill="none" stroke="#ffffff" paint-order="fill stroke markers" d=" M 54.764322916666664 83.70052083333333 C 60.28769077588027 84.49960923393334 65.77276306486843 83.30210587655272 74.26432291666666 83.70052083333333 M 54.764322916666664 83.70052083333333 C 62.53892534077555 83.70256720533905 69.85566777219451 83.62485112561222 74.26432291666666 83.70052083333333" stroke-linecap="round" stroke-linejoin="round" stroke-miterlimit="10" stroke-width="2"/></g></g></g></g></g></g></svg>